<svg xmlns="http://www.w3.org/2000/svg" width="32" height="32" viewBox="0 0 32 32"><rect width="32" height="32" rx="6" fill="#1DA1F2"/><path d="M25 11.5a6.6 6.6 0 0 1-1.89.52A3.3 3.3 0 0 0 24.3 10a6.6 6.6 0 0 1-2.08.8A3.3 3.3 0 0 0 16 14.1c0 .26.03.52.08.76A9.4 9.4 0 0 1 9 10.7a3.3 3.3 0 0 0 1.02 4.4 3.3 3.3 0 0 1-1.5-.41v.04a3.3 3.3 0 0 0 2.65 3.23c-.23.06-.47.1-.72.1-.18 0-.34-.02-.51-.05a3.3 3.3 0 0 0 3.08 2.3A6.6 6.6 0 0 1 8 22.1c-.22 0-.43-.01-.64-.04A9.3 9.3 0 0 0 13 24c6.1 0 9.5-5.1 9.5-9.5v-.43A6.7 6.7 0 0 0 25 11.5z" fill="#fff"/></svg>